<?xml version="1.0" encoding="UTF-8" standalone="no"?>
<!-- Created with Inkscape (http://www.inkscape.org/) -->

<svg
   xmlns:dc="http://purl.org/dc/elements/1.1/"
   xmlns:cc="http://creativecommons.org/ns#"
   xmlns:rdf="http://www.w3.org/1999/02/22-rdf-syntax-ns#"
   xmlns:svg="http://www.w3.org/2000/svg"
   xmlns="http://www.w3.org/2000/svg"
   xmlns:sodipodi="http://sodipodi.sourceforge.net/DTD/sodipodi-0.dtd"
   xmlns:inkscape="http://www.inkscape.org/namespaces/inkscape"
   width="25.407211mm"
   height="17.509155mm"
   viewBox="0 0 90.025552 62.040314"
   id="svg4568"
   version="1.1"
   inkscape:version="0.91 r"
   sodipodi:docname="honey.svg">
  <defs
     id="defs4570">
    <inkscape:path-effect
       effect="spiro"
       id="path-effect5297"
       is_visible="true" />
    <inkscape:path-effect
       effect="spiro"
       id="path-effect5207"
       is_visible="true" />
    <inkscape:path-effect
       effect="spiro"
       id="path-effect5203"
       is_visible="true" />
    <inkscape:path-effect
       effect="spiro"
       id="path-effect5207-5"
       is_visible="true" />
  </defs>
  <sodipodi:namedview
     id="base"
     pagecolor="#ffffff"
     bordercolor="#666666"
     borderopacity="1.0"
     inkscape:pageopacity="0.0"
     inkscape:pageshadow="2"
     inkscape:zoom="3.959798"
     inkscape:cx="21.664111"
     inkscape:cy="30.607529"
     inkscape:document-units="px"
     inkscape:current-layer="layer1"
     showgrid="false"
     showguides="true"
     inkscape:guide-bbox="true"
     inkscape:window-width="1366"
     inkscape:window-height="716"
     inkscape:window-x="0"
     inkscape:window-y="0"
     inkscape:window-maximized="1"
     fit-margin-top="0"
     fit-margin-left="0"
     fit-margin-right="0"
     fit-margin-bottom="0">
    <sodipodi:guide
       position="80.579526,34.45566"
       orientation="1,0"
       id="guide5283" />
    <sodipodi:guide
       position="83.988786,29.15236"
       orientation="1,0"
       id="guide5285" />
    <sodipodi:guide
       position="67.826346,2.6358603"
       orientation="0,1"
       id="guide5287" />
    <sodipodi:guide
       position="77.549066,6.9290102"
       orientation="0,1"
       id="guide5289" />
    <sodipodi:guide
       position="77.170256,12.86365"
       orientation="1,0"
       id="guide5291" />
    <sodipodi:guide
       position="87.650586,14.00008"
       orientation="1,0"
       id="guide5293" />
    <sodipodi:guide
       position="50.576226,0.066830326"
       orientation="0,1"
       id="guide5299" />
  </sodipodi:namedview>
  <metadata
     id="metadata4573">
    <rdf:RDF>
      <cc:Work
         rdf:about="">
        <dc:format>image/svg+xml</dc:format>
        <dc:type
           rdf:resource="http://purl.org/dc/dcmitype/StillImage" />
        <dc:title></dc:title>
      </cc:Work>
    </rdf:RDF>
  </metadata>
  <g
     inkscape:label="Layer 1"
     inkscape:groupmode="layer"
     id="layer1"
     transform="translate(-204.91484,-470.83515)">
    <path
       sodipodi:type="star"
       style="fill:none;fill-opacity:1;stroke:#e59701;stroke-width:1;stroke-linecap:butt;stroke-linejoin:miter;stroke-miterlimit:4;stroke-dasharray:none;stroke-opacity:1"
       id="path5167"
       sodipodi:sides="6"
       sodipodi:cx="229.69772"
       sodipodi:cy="497.80515"
       sodipodi:r1="5.7390938"
       sodipodi:r2="4.9499683"
       sodipodi:arg1="0.80126985"
       sodipodi:arg2="1.3248686"
       inkscape:flatsided="false"
       inkscape:rounded="0"
       inkscape:randomized="0"
       d="m 233.69096,501.92719 -2.78814,0.67899 -2.77828,0.71823 -1.98208,-2.0751 -2.01115,-2.04695 0.80605,-2.75408 0.76713,-2.76518 2.78813,-0.67899 2.77828,-0.71823 1.98209,2.0751 2.01115,2.04695 -0.80605,2.75408 z"
       transform="matrix(-0.76940664,0.63875928,-0.63875928,-0.76940664,735.49469,744.64771)" />
    <path
       sodipodi:type="star"
       style="fill:none;fill-opacity:1;stroke:#e59701;stroke-width:1;stroke-linecap:butt;stroke-linejoin:miter;stroke-miterlimit:4;stroke-dasharray:none;stroke-opacity:1"
       id="path5167-9"
       sodipodi:sides="6"
       sodipodi:cx="241.078"
       sodipodi:cy="500.97574"
       sodipodi:r1="5.7390938"
       sodipodi:r2="4.9499683"
       sodipodi:arg1="0.80126985"
       sodipodi:arg2="1.3248686"
       inkscape:flatsided="false"
       inkscape:rounded="0"
       inkscape:randomized="0"
       d="m 245.07124,505.09779 -2.78814,0.67898 -2.77828,0.71823 -1.98208,-2.0751 -2.01115,-2.04694 0.80605,-2.75409 0.76713,-2.76518 2.78813,-0.67898 2.77828,-0.71824 1.98209,2.0751 2.01115,2.04695 -0.80605,2.75409 z"
       transform="matrix(-0.76940664,0.63875928,-0.63875928,-0.76940664,735.14656,744.54954)" />
    <path
       sodipodi:type="star"
       style="fill:none;fill-opacity:1;stroke:#e59701;stroke-width:1;stroke-linecap:butt;stroke-linejoin:miter;stroke-miterlimit:4;stroke-dasharray:none;stroke-opacity:1"
       id="path5167-9-7"
       sodipodi:sides="6"
       sodipodi:cx="232.62604"
       sodipodi:cy="509.27481"
       sodipodi:r1="5.7390938"
       sodipodi:r2="4.9499683"
       sodipodi:arg1="0.80126985"
       sodipodi:arg2="1.3248686"
       inkscape:flatsided="false"
       inkscape:rounded="0"
       inkscape:randomized="0"
       d="m 236.61927,513.39686 -2.78813,0.67898 -2.77828,0.71824 -1.98209,-2.0751 -2.01115,-2.04695 0.80605,-2.75409 0.76713,-2.76518 2.78814,-0.67898 2.77828,-0.71824 1.98208,2.07511 2.01115,2.04694 -0.80605,2.75409 z"
       transform="matrix(-0.76940664,0.63875928,-0.63875928,-0.76940664,735.54832,744.24605)" />
    <path
       style="fill:none;fill-rule:evenodd;stroke:#e59701;stroke-width:1;stroke-linecap:butt;stroke-linejoin:miter;stroke-miterlimit:4;stroke-dasharray:none;stroke-opacity:1"
       d="m 217.26963,484.47676 c 5.46244,1.00735 11.01688,1.51523 16.57143,1.51523 5.55454,0 11.10898,-0.50788 16.57141,-1.51523 5.14717,4.14796 8.77699,10.13863 10.07103,16.62125 1.01363,5.07787 0.60949,10.43111 -1.155,15.29924 -1.76449,4.86814 -4.88423,9.23709 -8.91603,12.48621 -5.35266,1.65146 -10.95393,2.49459 -16.55556,2.492 -5.60244,-0.003 -11.20374,-0.85113 -16.55558,-2.508 -4.19965,-3.25129 -7.44593,-7.71926 -9.2405,-12.71801 -1.79456,-4.99874 -2.1313,-10.51125 -0.95852,-15.69126 1.42207,-6.28109 5.08061,-12.03173 10.16731,-15.98139 l 1e-5,-4e-5 z"
       id="path5201"
       inkscape:path-effect="#path-effect5203"
       inkscape:original-d="m 217.26963,484.47676 c 0,0 11.02458,1.51523 16.57143,1.51523 5.54685,0 16.57141,-1.51523 16.57141,-1.51523 0,0 9.43388,10.17456 10.07103,16.62125 0.96893,9.80367 -10.07103,27.78545 -10.07103,27.78545 0,0 -10.97487,2.49464 -16.55556,2.492 -5.58149,-0.003 -16.55558,-2.508 -16.55558,-2.508 0,0 -11.31324,-18.40964 -10.19902,-28.40927 0.6992,-6.27499 10.16731,-15.98139 10.16731,-15.98139 z"
       inkscape:connector-curvature="0"
       sodipodi:nodetypes="cacacacacc" />
    <path
       style="fill:none;fill-rule:evenodd;stroke:#e59701;stroke-width:1;stroke-linecap:round;stroke-linejoin:round;stroke-miterlimit:4;stroke-dasharray:none;stroke-opacity:1"
       d="m 216.64667,478.99923 c 5.91628,-0.43567 11.84903,-0.64754 17.78131,-0.635 5.60069,0.0118 11.20095,0.22368 16.78652,0.635 l 0,4.88926 c -5.51939,1.00321 -11.12652,1.52325 -16.73627,1.5522 -5.94134,0.0307 -11.88542,-0.48969 -17.73106,-1.5522 l -0.1005,-4.88926 z"
       id="path5205"
       inkscape:path-effect="#path-effect5207"
       inkscape:original-d="m 216.64667,478.99923 c 0,0 11.85037,-0.64128 17.78131,-0.635 5.59957,0.005 16.78652,0.635 16.78652,0.635 l 0,4.88926 c 0,0 -11.13325,1.53774 -16.73627,1.5522 -5.93326,0.0153 -17.73106,-1.5522 -17.73106,-1.5522 z"
       inkscape:connector-curvature="0"
       sodipodi:nodetypes="caccacc" />
    <path
       style="fill:none;fill-rule:evenodd;stroke:#e59701;stroke-width:1;stroke-linecap:round;stroke-linejoin:round;stroke-miterlimit:4;stroke-dasharray:none;stroke-opacity:1"
       d="m 212.93271,474.2549 c 7.00532,-1.45878 14.16501,-2.17511 21.32049,-2.13313 6.75789,0.0396 13.51163,0.75541 20.12771,2.13313 l 0,4.75753 c -6.68081,-0.4121 -13.37396,-0.62429 -20.06746,-0.63618 -7.0911,-0.0126 -14.18259,0.1996 -21.26025,0.63618 l -0.12049,-4.75753 z"
       id="path5205-6"
       inkscape:path-effect="#path-effect5207-5"
       inkscape:original-d="m 212.93271,474.2549 c 0,0 14.17821,-2.15408 21.32049,-2.13313 6.74678,0.0198 20.12771,2.13313 20.12771,2.13313 l 0,4.75753 c 0,0 -13.37495,-0.63024 -20.06746,-0.63618 -7.08992,-0.006 -21.26025,0.63618 -21.26025,0.63618 z"
       inkscape:connector-curvature="0"
       sodipodi:nodetypes="caccacc" />
    <rect
       style="fill:none;fill-opacity:1;stroke:#e59701;stroke-width:1;stroke-linecap:round;stroke-linejoin:round;stroke-miterlimit:4;stroke-dasharray:none;stroke-opacity:1"
       id="rect5236"
       width="18.182745"
       height="4.7982244"
       x="272.07367"
       y="473.79733"
       rx="2.5"
       ry="2.4537599" />
    <rect
       style="fill:none;fill-opacity:1;stroke:#e59701;stroke-width:1;stroke-linecap:round;stroke-linejoin:round;stroke-miterlimit:4;stroke-dasharray:none;stroke-opacity:1"
       id="rect5236-8"
       width="23.920582"
       height="4.4751453"
       x="269.35828"
       y="478.90363"
       rx="3.2889123"
       ry="2.2885408" />
    <rect
       style="fill:none;fill-opacity:1;stroke:#e59701;stroke-width:1;stroke-linecap:round;stroke-linejoin:round;stroke-miterlimit:4;stroke-dasharray:none;stroke-opacity:1"
       id="rect5236-8-0"
       width="20.804369"
       height="4.6419282"
       x="270.94119"
       y="483.27576"
       rx="2.8604548"
       ry="2.373832" />
    <rect
       style="fill:none;fill-opacity:1;stroke:#e59701;stroke-width:1;stroke-linecap:round;stroke-linejoin:round;stroke-miterlimit:4;stroke-dasharray:none;stroke-opacity:1"
       id="rect5236-8-0-4"
       width="14.636195"
       height="5.0397453"
       x="274.04099"
       y="487.94498"
       rx="2.0123742"
       ry="2.5772715" />
    <path
       style="fill:none;fill-rule:evenodd;stroke:#e59701;stroke-width:1;stroke-linecap:round;stroke-linejoin:round;stroke-miterlimit:4;stroke-dasharray:none;stroke-opacity:1"
       d="m 279.47178,493.17387 0,29.40449 c -0.86612,0.0139 -1.7227,0.36132 -2.35378,0.9547 -0.63107,0.59338 -1.03053,1.42698 -1.09767,2.2906 -0.0159,0.20448 -0.0139,0.41013 0,0.61476 0.0901,1.32899 0.70138,2.61573 1.67461,3.52521 0.97324,0.90947 2.29838,1.43228 3.63042,1.43229 1.33204,0 2.65719,-0.52279 3.63042,-1.43227 0.97323,-0.90948 1.58447,-2.19624 1.67455,-3.52523 0.0139,-0.20463 0.0159,-0.41028 0,-0.61476 -0.0704,-0.90658 -0.50784,-1.77936 -1.19202,-2.37831 -0.68419,-0.59895 -1.60715,-0.91712 -2.51508,-0.86699 l 0,-29.40449 -3.45145,0 z"
       id="path5295"
       inkscape:path-effect="#path-effect5297"
       inkscape:original-d="m 279.47178,493.17387 0,29.40449 c 0,0 -2.82899,1.83351 -3.45145,3.2453 -0.0834,0.18937 -1.02443,-0.29507 0,0.61476 2.50081,2.22103 8.10919,2.22103 10.61,0 1.02443,-0.90983 0.0871,-0.42682 0,-0.61476 -0.67364,-1.45382 -3.7071,-3.2453 -3.7071,-3.2453 l 0,-29.40449 z"
       inkscape:connector-curvature="0"
       sodipodi:nodetypes="ccassaccc" />
  </g>
</svg>
